<?xml version="1.0" encoding="UTF-8" standalone="no"?>
<svg
   xmlns:dc="http://purl.org/dc/elements/1.1/"
   xmlns:cc="http://creativecommons.org/ns#"
   xmlns:rdf="http://www.w3.org/1999/02/22-rdf-syntax-ns#"
   xmlns:svg="http://www.w3.org/2000/svg"
   xmlns="http://www.w3.org/2000/svg"
   xmlns:sodipodi="http://sodipodi.sourceforge.net/DTD/sodipodi-0.dtd"
   xmlns:inkscape="http://www.inkscape.org/namespaces/inkscape"
   width="16"
   height="16"
   version="1"
   viewBox="0 0 16 16"
   id="svg8"
   sodipodi:docname="drive-harddisk.svg"
   inkscape:version="1.0.1 (3bc2e813f5, 2020-09-07)">
  <metadata
     id="metadata14">
    <rdf:RDF>
      <cc:Work
         rdf:about="">
        <dc:format>image/svg+xml</dc:format>
        <dc:type
           rdf:resource="http://purl.org/dc/dcmitype/StillImage" />
      </cc:Work>
    </rdf:RDF>
  </metadata>
  <defs
     id="defs12" />
  <sodipodi:namedview
     pagecolor="#ffffff"
     bordercolor="#666666"
     borderopacity="1"
     objecttolerance="10"
     gridtolerance="10"
     guidetolerance="10"
     inkscape:pageopacity="0"
     inkscape:pageshadow="2"
     inkscape:window-width="1920"
     inkscape:window-height="999"
     id="namedview10"
     showgrid="false"
     inkscape:zoom="49.625"
     inkscape:cx="8"
     inkscape:cy="8"
     inkscape:window-x="0"
     inkscape:window-y="0"
     inkscape:window-maximized="1"
     inkscape:current-layer="svg8"
     inkscape:document-rotation="0" />
  <path
     d="M3.188 0A2.197 2.197 0 0 0 1 2.188v11.624C1 15.012 1.986 16 3.188 16h9.624A2.197 2.197 0 0 0 15 13.812V2.188C15 .988 14.014 0 12.812 0H3.188zm0 2h9.624c.124 0 .188.057.188.188v11.624c0 .131-.064.188-.188.188H3.188C3.063 14 3 13.943 3 13.812V2.188C3 2.056 3.064 2 3.188 2z"
     overflow="visible"
     id="path2"
     style="fill:#c0bfbc" />
  <path
     d="M7.844 3c-.266.01-.545.059-.813.125a3.99 3.99 0 0 0-2.906 4.844 3.985 3.985 0 0 0 4.373 2.994l-.388-2.98A.39.39 0 0 1 8 8a1 1 0 1 1 1-1 .797.797 0 0 1-.073.325l2.701 1.387c.386-.83.47-1.78.247-2.68A3.985 3.985 0 0 0 7.844 3z"
     overflow="visible"
     id="path4"
     style="fill:#c0bfbc" />
  <path
     d="M8.661 8L10 12c.734 2.056 3 .384 1.497-1z"
     overflow="visible"
     id="path6"
     style="fill:#c0bfbc" />
</svg>
