<?xml version="1.0" encoding="UTF-8" standalone="no"?>
<svg
   xmlns:dc="http://purl.org/dc/elements/1.1/"
   xmlns:cc="http://creativecommons.org/ns#"
   xmlns:rdf="http://www.w3.org/1999/02/22-rdf-syntax-ns#"
   xmlns:svg="http://www.w3.org/2000/svg"
   xmlns="http://www.w3.org/2000/svg"
   xmlns:sodipodi="http://sodipodi.sourceforge.net/DTD/sodipodi-0.dtd"
   xmlns:inkscape="http://www.inkscape.org/namespaces/inkscape"
   width="16"
   height="16"
   version="1"
   viewBox="0 0 16 16"
   id="svg8"
   sodipodi:docname="folder-templates.svg"
   inkscape:version="1.0.1 (3bc2e813f5, 2020-09-07)">
  <metadata
     id="metadata14">
    <rdf:RDF>
      <cc:Work
         rdf:about="">
        <dc:format>image/svg+xml</dc:format>
        <dc:type
           rdf:resource="http://purl.org/dc/dcmitype/StillImage" />
      </cc:Work>
    </rdf:RDF>
  </metadata>
  <defs
     id="defs12" />
  <sodipodi:namedview
     pagecolor="#ffffff"
     bordercolor="#666666"
     borderopacity="1"
     objecttolerance="10"
     gridtolerance="10"
     guidetolerance="10"
     inkscape:pageopacity="0"
     inkscape:pageshadow="2"
     inkscape:window-width="1920"
     inkscape:window-height="999"
     id="namedview10"
     showgrid="false"
     inkscape:zoom="49.625"
     inkscape:cx="8"
     inkscape:cy="8"
     inkscape:window-x="0"
     inkscape:window-y="0"
     inkscape:window-maximized="1"
     inkscape:current-layer="svg8"
     inkscape:document-rotation="0" />
  <path
     fill-rule="evenodd"
     d="m 3,9 h 1 v 1 H 3 Z m -1,1 h 1 v 1 H 2 Z m 1,1 h 1 v 1 H 3 Z m -1,1 h 1 v 1 H 2 Z m 1,1 h 1 v 1 H 3 Z m -1,1 h 1 v 1 H 2 Z m 2,0 h 1 v 1 H 4 Z m 2,0 h 1 v 1 H 6 Z m 2,0 h 1 v 1 H 8 Z m 2,0 h 1 v 1 h -1 z"
     overflow="visible"
     id="path2"
     style="fill:#3584e4" />
  <path
     d="M2.813 1A1.032 1.032 0 0 0 2 2v8h2V3h5v3h3v7.997h2V5.562a1.013 1.013 0 0 0-.281-.718L10.156 1.28A1.012 1.012 0 0 0 9.438 1H3a1.464 1.464 0 0 0-.094 0 1.464 1.464 0 0 0-.093 0z"
     overflow="visible"
     id="path4"
     style="fill:#3584e4" />
  <path
     fill-rule="evenodd"
     d="M3 15h1v1H3zm2 0h1v1H5zm2 0h1v1H7zm2 0h1v1H9zm2 0h1v1h-1zm1-1.187h1V15h-1z"
     overflow="visible"
     id="path6"
     style="fill:#3584e4" />
</svg>
