<?xml version="1.0" encoding="UTF-8" standalone="no"?>
<svg
   xmlns:dc="http://purl.org/dc/elements/1.1/"
   xmlns:cc="http://creativecommons.org/ns#"
   xmlns:rdf="http://www.w3.org/1999/02/22-rdf-syntax-ns#"
   xmlns:svg="http://www.w3.org/2000/svg"
   xmlns="http://www.w3.org/2000/svg"
   xmlns:sodipodi="http://sodipodi.sourceforge.net/DTD/sodipodi-0.dtd"
   xmlns:inkscape="http://www.inkscape.org/namespaces/inkscape"
   width="16"
   height="16"
   version="1"
   viewBox="0 0 16 16"
   id="svg8"
   sodipodi:docname="folder-music.svg"
   inkscape:version="1.0.1 (3bc2e813f5, 2020-09-07)">
  <metadata
     id="metadata14">
    <rdf:RDF>
      <cc:Work
         rdf:about="">
        <dc:format>image/svg+xml</dc:format>
        <dc:type
           rdf:resource="http://purl.org/dc/dcmitype/StillImage" />
      </cc:Work>
    </rdf:RDF>
  </metadata>
  <defs
     id="defs12" />
  <sodipodi:namedview
     pagecolor="#ffffff"
     bordercolor="#666666"
     borderopacity="1"
     objecttolerance="10"
     gridtolerance="10"
     guidetolerance="10"
     inkscape:pageopacity="0"
     inkscape:pageshadow="2"
     inkscape:window-width="1920"
     inkscape:window-height="999"
     id="namedview10"
     showgrid="false"
     inkscape:zoom="49.625"
     inkscape:cx="3.465995"
     inkscape:cy="8"
     inkscape:window-x="0"
     inkscape:window-y="0"
     inkscape:window-maximized="1"
     inkscape:current-layer="svg8"
     inkscape:document-rotation="0" />
  <path
     d="M3.504 8.014c-1.921 0-3.503 1.55-3.503 3.47a3.521 3.521 0 0 0 3.503 3.504 3.521 3.521 0 0 0 3.504-3.503c0-1.921-1.583-3.471-3.504-3.471zm0 1.992c.84 0 1.51.639 1.51 1.479 0 .84-.67 1.51-1.51 1.51s-1.51-.67-1.51-1.51.67-1.479 1.51-1.479zm8-1.992c-1.921 0-3.503 1.55-3.503 3.47a3.521 3.521 0 0 0 3.503 3.504 3.521 3.521 0 0 0 3.504-3.503c0-1.921-1.583-3.471-3.504-3.471zm0 1.992c.84 0 1.51.639 1.51 1.479 0 .84-.67 1.51-1.51 1.51s-1.51-.67-1.51-1.51.67-1.479 1.51-1.479z"
     overflow="visible"
     id="path2"
     style="fill:#33d17a" />
  <path
     d="M5 2h2v9.516H5zm8 0h2v9.563h-2z"
     overflow="visible"
     id="path4"
     style="fill:#33d17a" />
  <path
     d="M5 2h10v2H5z"
     overflow="visible"
     id="path6"
     style="fill:#33d17a" />
</svg>
