<?xml version="1.0" encoding="UTF-8" standalone="no"?>
<svg
   xmlns:dc="http://purl.org/dc/elements/1.1/"
   xmlns:cc="http://creativecommons.org/ns#"
   xmlns:rdf="http://www.w3.org/1999/02/22-rdf-syntax-ns#"
   xmlns:svg="http://www.w3.org/2000/svg"
   xmlns="http://www.w3.org/2000/svg"
   xmlns:sodipodi="http://sodipodi.sourceforge.net/DTD/sodipodi-0.dtd"
   xmlns:inkscape="http://www.inkscape.org/namespaces/inkscape"
   width="16"
   height="16"
   version="1"
   viewBox="0 0 16 16"
   id="svg4"
   sodipodi:docname="folder-documents.svg"
   inkscape:version="1.0.1 (3bc2e813f5, 2020-09-07)">
  <metadata
     id="metadata10">
    <rdf:RDF>
      <cc:Work
         rdf:about="">
        <dc:format>image/svg+xml</dc:format>
        <dc:type
           rdf:resource="http://purl.org/dc/dcmitype/StillImage" />
      </cc:Work>
    </rdf:RDF>
  </metadata>
  <defs
     id="defs8" />
  <sodipodi:namedview
     pagecolor="#ffffff"
     bordercolor="#666666"
     borderopacity="1"
     objecttolerance="10"
     gridtolerance="10"
     guidetolerance="10"
     inkscape:pageopacity="0"
     inkscape:pageshadow="2"
     inkscape:window-width="1920"
     inkscape:window-height="999"
     id="namedview6"
     showgrid="false"
     inkscape:zoom="45.254834"
     inkscape:cx="10.235724"
     inkscape:cy="13.066582"
     inkscape:window-x="0"
     inkscape:window-y="0"
     inkscape:window-maximized="1"
     inkscape:current-layer="svg4"
     inkscape:document-rotation="0" />
  <path
     d="M2.813 1A1 1 0 0 0 2 2v13a1 1 0 0 0 1 1h10a1 1 0 0 0 1-1V5.562a1 1 0 0 0-.281-.718L10.156 1.28A1 1 0 0 0 9.438 1H3a1 1 0 0 0-.093 0 1 1 0 0 0-.094 0zM4 3h5v3h3v8H4V3z"
     overflow="visible"
     id="path2"
     style="fill:#ff7800" />
  <path
     style="fill:#ff7800;stroke-width:0.0201511"
     d="M 2.8750611,15.978719 C 2.5867438,15.945211 2.2584961,15.717497 2.1283817,15.460729 2.0066961,15.220594 2.0150912,15.738752 2.0153525,8.4844312 2.0156142,1.219083 2.0063029,1.7577599 2.1358264,1.5147489 2.2527711,1.2953383 2.4524468,1.1269703 2.6891145,1.0482123 2.8126823,1.0070916 2.8313208,1.0069027 6.2379017,1.0122534 l 3.4245668,0.00538 0.1209068,0.048491 c 0.066499,0.02667 0.1571789,0.07066 0.2015113,0.097755 0.1243144,0.075979 3.7477444,3.7003114 3.8412684,3.8422252 0.0433,0.065699 0.09672,0.1777376 0.118727,0.2489741 0.03944,0.1276856 0.04001,0.1985177 0.04001,4.9997383 0,4.251981 -0.0038,4.884867 -0.03006,4.985621 -0.104409,0.400853 -0.442331,0.692696 -0.856591,0.739787 -0.207728,0.02361 -10.0194785,0.02217 -10.2231759,-0.0015 z M 12.010076,9.9949622 V 5.9848866 H 10.508816 9.0075567 V 4.4836272 2.9823678 H 6.4987406 3.9899244 v 5.511335 5.5113352 H 8 12.010076 Z"
     id="path12" />
  <path
     style="fill:#ff7800;stroke-width:0.0201511"
     d="M 2.8211587,15.957855 C 2.662602,15.927118 2.4447034,15.804604 2.3100728,15.670496 2.1231594,15.484307 2.0774657,15.383786 2.0547095,15.108723 2.0300637,14.810822 2.029905,2.2074719 2.054543,1.8893381 2.0700553,1.6890374 2.0815773,1.6365966 2.1296325,1.5475781 2.2244382,1.3719578 2.4019219,1.199132 2.5756419,1.1132737 l 0.152742,-0.07549 h 3.4871935 3.4871934 l 0.161209,0.078344 c 0.1593742,0.077452 0.1826722,0.099812 2.0471642,1.9647355 1.852033,1.8524626 1.887372,1.8892719 1.964735,2.0465215 l 0.07878,0.1601296 0.01008,2.4393666 c 0.0055,1.3416516 0.0055,3.5819351 0,4.9784101 l -0.01008,2.539042 -0.07583,0.158813 c -0.09113,0.190857 -0.269841,0.377134 -0.442008,0.460716 -0.253519,0.123077 0.106756,0.115571 -5.4468996,0.113482 -2.7980751,-0.0011 -5.1188001,-0.0098 -5.1687657,-0.01949 z M 12.010076,9.9949622 V 5.9848866 H 10.508816 9.0075567 V 4.4836272 2.9823678 H 6.4987406 3.9899244 v 5.511335 5.5113352 H 8 12.010076 Z"
     id="path14" />
</svg>
