<?xml version="1.0" encoding="UTF-8" standalone="no"?>
<svg
   xmlns:dc="http://purl.org/dc/elements/1.1/"
   xmlns:cc="http://creativecommons.org/ns#"
   xmlns:rdf="http://www.w3.org/1999/02/22-rdf-syntax-ns#"
   xmlns:svg="http://www.w3.org/2000/svg"
   xmlns="http://www.w3.org/2000/svg"
   xmlns:sodipodi="http://sodipodi.sourceforge.net/DTD/sodipodi-0.dtd"
   xmlns:inkscape="http://www.inkscape.org/namespaces/inkscape"
   width="16"
   height="16"
   version="1"
   viewBox="0 0 16 16"
   id="svg6"
   sodipodi:docname="folder-saved-search.svg"
   inkscape:version="1.0.1 (3bc2e813f5, 2020-09-07)">
  <metadata
     id="metadata12">
    <rdf:RDF>
      <cc:Work
         rdf:about="">
        <dc:format>image/svg+xml</dc:format>
        <dc:type
           rdf:resource="http://purl.org/dc/dcmitype/StillImage" />
      </cc:Work>
    </rdf:RDF>
  </metadata>
  <defs
     id="defs10" />
  <sodipodi:namedview
     pagecolor="#ffffff"
     bordercolor="#666666"
     borderopacity="1"
     objecttolerance="10"
     gridtolerance="10"
     guidetolerance="10"
     inkscape:pageopacity="0"
     inkscape:pageshadow="2"
     inkscape:window-width="1920"
     inkscape:window-height="999"
     id="namedview8"
     showgrid="false"
     inkscape:zoom="49.625"
     inkscape:cx="8"
     inkscape:cy="8"
     inkscape:window-x="0"
     inkscape:window-y="0"
     inkscape:window-maximized="1"
     inkscape:current-layer="svg6"
     inkscape:document-rotation="0" />
  <path
     d="M6.507.996C3.48.996.997 3.475.997 6.5c0 3.025 2.482 5.504 5.51 5.504 3.03 0 5.511-2.479 5.511-5.504 0-3.025-2.482-5.504-5.51-5.504zm0 2.008c1.948 0 3.5 1.55 3.5 3.496a3.479 3.479 0 0 1-3.5 3.496 3.48 3.48 0 0 1-3.5-3.496 3.479 3.479 0 0 1 3.5-3.496z"
     overflow="visible"
     id="path2"
     style="fill:#3584e4" />
  <path
     d="M9.812 9a1 1 0 0 0-.5 1.719l4 4a1.005 1.005 0 1 0 1.406-1.438l-4-4A1 1 0 0 0 9.812 9z"
     overflow="visible"
     id="path4"
     style="fill:#3584e4" />
</svg>
