<?xml version="1.0" encoding="UTF-8" standalone="no"?>
<svg
   xmlns:dc="http://purl.org/dc/elements/1.1/"
   xmlns:cc="http://creativecommons.org/ns#"
   xmlns:rdf="http://www.w3.org/1999/02/22-rdf-syntax-ns#"
   xmlns:svg="http://www.w3.org/2000/svg"
   xmlns="http://www.w3.org/2000/svg"
   xmlns:sodipodi="http://sodipodi.sourceforge.net/DTD/sodipodi-0.dtd"
   xmlns:inkscape="http://www.inkscape.org/namespaces/inkscape"
   width="16.014"
   height="16"
   version="1.1"
   id="svg10"
   sodipodi:docname="folder-drag-accept.svg"
   inkscape:version="1.0.1 (3bc2e813f5, 2020-09-07)">
  <metadata
     id="metadata16">
    <rdf:RDF>
      <cc:Work
         rdf:about="">
        <dc:format>image/svg+xml</dc:format>
        <dc:type
           rdf:resource="http://purl.org/dc/dcmitype/StillImage" />
      </cc:Work>
    </rdf:RDF>
  </metadata>
  <defs
     id="defs14" />
  <sodipodi:namedview
     pagecolor="#ffffff"
     bordercolor="#666666"
     borderopacity="1"
     objecttolerance="10"
     gridtolerance="10"
     guidetolerance="10"
     inkscape:pageopacity="0"
     inkscape:pageshadow="2"
     inkscape:window-width="885"
     inkscape:window-height="480"
     id="namedview12"
     showgrid="false"
     inkscape:zoom="49.625"
     inkscape:cx="8.007"
     inkscape:cy="8"
     inkscape:window-x="26"
     inkscape:window-y="23"
     inkscape:window-maximized="0"
     inkscape:current-layer="svg10" />
  <g
     fill="#474747"
     id="g8"
     style="fill:#3584e4">
    <path
       d="M1.014 1a1 1 0 00-1 1v5.832a1 1 0 000 .326V13s-.014.459.23.947C.49 14.436 1.182 15 2.015 15h1.832a1 1 0 00.326 0h9.842s.459.014.948-.23c.488-.245 1.052-.937 1.052-1.77v-2a1 1 0 00-1-1h-11a1 1 0 00-1 1v2h-1V9h11a1 1 0 001-1V4a1 1 0 00-1-1H8.428L6.721 1.293A1 1 0 006.014 1zm1 2H5.6l1.707 1.707A1 1 0 008.014 5h4v2h-10zm3 9h9v1h-9z"
       style="line-height:normal;font-variant-ligatures:normal;font-variant-position:normal;font-variant-caps:normal;font-variant-numeric:normal;font-variant-alternates:normal;font-feature-settings:normal;text-indent:0;text-align:start;text-decoration-line:none;text-decoration-style:solid;text-decoration-color:#000;text-transform:none;text-orientation:mixed;shape-padding:0;isolation:auto;mix-blend-mode:normal;fill:#3584e4"
       color="#000"
       font-weight="400"
       font-family="sans-serif"
       overflow="visible"
       fill-rule="evenodd"
       id="path2" />
    <path
       d="M1.014 10h1s0-1 1-1l10-1V4h-5l-2-2h-5z"
       fill-rule="evenodd"
       id="path4"
       style="fill:#3584e4" />
    <path
       d="M4.014 11h11v3h-11zm9-3h1v1h-1zm2 2h1v1h-1zm-12 0h1v1h-1z"
       id="path6"
       style="fill:#3584e4" />
  </g>
</svg>
