<?xml version="1.0" encoding="UTF-8" standalone="no"?>
<svg
   xmlns:dc="http://purl.org/dc/elements/1.1/"
   xmlns:cc="http://creativecommons.org/ns#"
   xmlns:rdf="http://www.w3.org/1999/02/22-rdf-syntax-ns#"
   xmlns:svg="http://www.w3.org/2000/svg"
   xmlns="http://www.w3.org/2000/svg"
   xmlns:sodipodi="http://sodipodi.sourceforge.net/DTD/sodipodi-0.dtd"
   xmlns:inkscape="http://www.inkscape.org/namespaces/inkscape"
   width="16"
   height="16"
   version="1.1"
   id="svg12"
   sodipodi:docname="folder-remote.svg"
   inkscape:version="1.0.1 (3bc2e813f5, 2020-09-07)">
  <metadata
     id="metadata18">
    <rdf:RDF>
      <cc:Work
         rdf:about="">
        <dc:format>image/svg+xml</dc:format>
        <dc:type
           rdf:resource="http://purl.org/dc/dcmitype/StillImage" />
      </cc:Work>
    </rdf:RDF>
  </metadata>
  <defs
     id="defs16" />
  <sodipodi:namedview
     pagecolor="#ffffff"
     bordercolor="#666666"
     borderopacity="1"
     objecttolerance="10"
     gridtolerance="10"
     guidetolerance="10"
     inkscape:pageopacity="0"
     inkscape:pageshadow="2"
     inkscape:window-width="885"
     inkscape:window-height="480"
     id="namedview14"
     showgrid="false"
     inkscape:zoom="49.625"
     inkscape:cx="8"
     inkscape:cy="8"
     inkscape:window-x="26"
     inkscape:window-y="23"
     inkscape:window-maximized="0"
     inkscape:current-layer="svg12" />
  <g
     fill="#474747"
     id="g10"
     style="fill:#c0bfbc">
    <path
       d="M2 0a1 1 0 00-1 1v9s-.014.459.23.947C1.475 11.436 2.167 12 3 12h1.832a1 1 0 00.326 0H13s.459.014.947-.23C14.436 11.525 15 10.833 15 10V6a1 1 0 00-1-1H5a1 1 0 00-1 1v4H3V2h2.586l1.707 1.707A1 1 0 008 4h5a1 1 0 100-2H8.414L6.707.293A1 1 0 006 0zm4 7h7v3H6z"
       style="line-height:normal;font-variant-ligatures:normal;font-variant-position:normal;font-variant-caps:normal;font-variant-numeric:normal;font-variant-alternates:normal;font-feature-settings:normal;text-indent:0;text-align:start;text-decoration-line:none;text-decoration-style:solid;text-decoration-color:#000;text-transform:none;text-orientation:mixed;shape-padding:0;isolation:auto;mix-blend-mode:normal;fill:#c0bfbc"
       color="#000"
       font-weight="400"
       font-family="sans-serif"
       overflow="visible"
       fill-rule="evenodd"
       id="path2" />
    <path
       d="M2 5h1s0-1 1-1h6L7 1H2z"
       fill-rule="evenodd"
       id="path4"
       style="fill:#c0bfbc" />
    <path
       d="M5 6h9v5H5zm8-3h1v1h-1zm1 2h1v1h-1zM4 5h1v1H4zm-2.5 9h13c.277 0 .5.223.5.5v1c0 .277-.223.5-.5.5h-13a.499.499 0 01-.5-.5v-1c0-.277.223-.5.5-.5z"
       id="path6"
       style="fill:#c0bfbc" />
    <path
       d="M7 11h2v4H7z"
       id="path8"
       style="fill:#c0bfbc" />
  </g>
</svg>
