<?xml version="1.0" encoding="UTF-8" standalone="no"?>
<svg
   xmlns:dc="http://purl.org/dc/elements/1.1/"
   xmlns:cc="http://creativecommons.org/ns#"
   xmlns:rdf="http://www.w3.org/1999/02/22-rdf-syntax-ns#"
   xmlns:svg="http://www.w3.org/2000/svg"
   xmlns="http://www.w3.org/2000/svg"
   xmlns:sodipodi="http://sodipodi.sourceforge.net/DTD/sodipodi-0.dtd"
   xmlns:inkscape="http://www.inkscape.org/namespaces/inkscape"
   width="16"
   height="16"
   version="1"
   viewBox="0 0 16 16"
   id="svg8"
   sodipodi:docname="network-server.svg"
   inkscape:version="1.0.1 (3bc2e813f5, 2020-09-07)">
  <metadata
     id="metadata14">
    <rdf:RDF>
      <cc:Work
         rdf:about="">
        <dc:format>image/svg+xml</dc:format>
        <dc:type
           rdf:resource="http://purl.org/dc/dcmitype/StillImage" />
      </cc:Work>
    </rdf:RDF>
  </metadata>
  <defs
     id="defs12" />
  <sodipodi:namedview
     pagecolor="#ffffff"
     bordercolor="#666666"
     borderopacity="1"
     objecttolerance="10"
     gridtolerance="10"
     guidetolerance="10"
     inkscape:pageopacity="0"
     inkscape:pageshadow="2"
     inkscape:window-width="1920"
     inkscape:window-height="999"
     id="namedview10"
     showgrid="false"
     inkscape:zoom="49.625"
     inkscape:cx="8"
     inkscape:cy="8"
     inkscape:window-x="0"
     inkscape:window-y="0"
     inkscape:window-maximized="1"
     inkscape:current-layer="svg8"
     inkscape:document-rotation="0" />
  <path
     d="M6 12v2H.469a.464.464 0 0 0-.469.469v1.062c0 .263.206.469.469.469H13.53a.464.464 0 0 0 .469-.469V14.47a.464.464 0 0 0-.469-.469H8v-2z"
     id="path2"
     style="fill:#c0bfbc" />
  <path
     d="M4 0C2.91 0 2 .91 2 2v8c0 1.09.91 2 2 2h6c1.09 0 2-.91 2-2V2c0-1.09-.91-2-2-2H4zm0 2h6v8H4V2z"
     overflow="visible"
     id="path4"
     style="fill:#c0bfbc" />
  <path
     d="M5 3h4v1H5zm3 2h1v1H8z"
     overflow="visible"
     id="path6"
     style="fill:#c0bfbc" />
</svg>
