<?xml version="1.0" encoding="UTF-8" standalone="no"?>
<svg
   xmlns:dc="http://purl.org/dc/elements/1.1/"
   xmlns:cc="http://creativecommons.org/ns#"
   xmlns:rdf="http://www.w3.org/1999/02/22-rdf-syntax-ns#"
   xmlns:svg="http://www.w3.org/2000/svg"
   xmlns="http://www.w3.org/2000/svg"
   xmlns:sodipodi="http://sodipodi.sourceforge.net/DTD/sodipodi-0.dtd"
   xmlns:inkscape="http://www.inkscape.org/namespaces/inkscape"
   width="16.013"
   height="16"
   version="1"
   viewBox="0 0 16.013 16"
   id="svg14"
   sodipodi:docname="user-home.svg"
   inkscape:version="1.0.1 (3bc2e813f5, 2020-09-07)">
  <metadata
     id="metadata20">
    <rdf:RDF>
      <cc:Work
         rdf:about="">
        <dc:format>image/svg+xml</dc:format>
        <dc:type
           rdf:resource="http://purl.org/dc/dcmitype/StillImage" />
      </cc:Work>
    </rdf:RDF>
  </metadata>
  <defs
     id="defs18" />
  <sodipodi:namedview
     pagecolor="#ffffff"
     bordercolor="#666666"
     borderopacity="1"
     objecttolerance="10"
     gridtolerance="10"
     guidetolerance="10"
     inkscape:pageopacity="0"
     inkscape:pageshadow="2"
     inkscape:window-width="1920"
     inkscape:window-height="1043"
     id="namedview16"
     showgrid="false"
     inkscape:zoom="49.625"
     inkscape:cx="8.0065002"
     inkscape:cy="8"
     inkscape:window-x="0"
     inkscape:window-y="0"
     inkscape:window-maximized="1"
     inkscape:current-layer="svg14"
     inkscape:document-rotation="0" />
  <g
     transform="translate(-562.994 -175)"
     id="g12"
     style="fill:#3584e4">
    <path
       d="M565.781 180a1 1 0 0 0-.781 1v7a1 1 0 0 0 1 1h10a1 1 0 0 0 1-1v-7a1 1 0 1 0-2 0v6h-8v-6a1 1 0 0 0-1.219-1z"
       overflow="visible"
       id="path2"
       style="fill:#3584e4" />
    <path
       d="M570.906 176a1 1 0 0 0-.5.188l-7 5a1.006 1.006 0 1 0 1.188 1.625L571 178.25l6.406 4.563a1.006 1.006 0 1 0 1.188-1.625l-7-5a1 1 0 0 0-.688-.188z"
       overflow="visible"
       id="path4"
       style="fill:#3584e4" />
    <path
       d="M569 183h3v6h-3z"
       overflow="visible"
       id="path6"
       style="fill:#3584e4" />
    <rect
       width="1"
       height="1"
       x="-579"
       y="182"
       rx="0"
       ry="1"
       transform="scale(-1 1)"
       id="rect8"
       style="fill:#3584e4" />
    <rect
       width="1"
       height="1"
       x="-564"
       y="182"
       rx="0"
       ry="1"
       transform="scale(-1 1)"
       id="rect10"
       style="fill:#3584e4" />
  </g>
</svg>
